<?xml version="1.0" standalone="no"?>
<!DOCTYPE svg PUBLIC "-//W3C//DTD SVG 20010904//EN"
 "http://www.w3.org/TR/2001/REC-SVG-20010904/DTD/svg10.dtd">
<svg version="1.0" xmlns="http://www.w3.org/2000/svg"
 width="512.000000pt" height="512.000000pt" viewBox="0 0 512.000000 512.000000"
 preserveAspectRatio="xMidYMid meet">

<g transform="translate(0.000000,512.000000) scale(0.100000,-0.100000)"
fill="#2a3957" stroke="none">
<path d="M4180 4469 c-75 -15 -163 -64 -219 -124 -89 -94 -126 -206 -119 -362
3 -75 6 -85 31 -110 22 -22 37 -28 73 -28 39 0 50 5 75 33 26 29 29 39 29 102
0 117 16 167 70 220 36 37 58 50 96 58 106 23 199 -24 245 -123 17 -36 19 -70
19 -382 l0 -343 -2110 0 c-2059 0 -2111 0 -2160 -19 -69 -26 -115 -63 -154
-124 -83 -127 -70 -279 33 -390 22 -24 58 -52 79 -61 l39 -18 6 -256 c6 -276
19 -365 73 -528 89 -269 289 -536 517 -693 l46 -31 3 -288 c3 -260 5 -290 22
-314 27 -40 74 -50 218 -46 114 3 129 5 150 25 13 12 66 108 118 212 l95 191
1105 0 1105 0 95 -191 c52 -104 105 -200 118 -212 21 -20 36 -22 150 -25 144
-4 191 6 218 46 17 24 19 54 22 314 l3 288 46 31 c228 157 428 424 517 693 54
163 67 252 73 528 l6 256 39 18 c21 9 57 37 79 61 103 111 116 263 33 390 -63
97 -134 134 -274 142 l-95 6 -5 370 c-4 313 -8 376 -22 411 -81 203 -279 314
-488 273z m-3110 -1374 l0 -105 -396 0 -396 0 -29 29 c-36 36 -41 80 -16 130
24 48 45 50 455 51 l382 0 0 -105z m1280 -413 c0 -285 -2 -521 -5 -524 -4 -3
-831 130 -1032 167 l-33 6 0 434 0 435 535 0 535 0 0 -518z m2488 507 c69 -24
87 -116 33 -170 l-29 -29 -1141 0 -1141 0 0 105 0 105 1124 0 c775 0 1133 -3
1154 -11z m-3768 -702 c0 -312 1 -316 64 -342 17 -7 323 -61 681 -120 l649
-108 35 19 c61 33 61 31 61 452 l0 382 1066 0 1066 0 -4 -252 c-4 -232 -7
-261 -31 -348 -33 -124 -75 -224 -133 -321 -178 -295 -491 -503 -834 -555
-140 -21 -2120 -21 -2260 0 -343 52 -656 260 -834 555 -58 97 -100 197 -133
321 -24 87 -27 116 -31 348 l-4 252 321 0 321 0 0 -283z m102 -1349 l66 -21
-66 -134 c-48 -95 -72 -133 -84 -133 -16 0 -18 14 -18 161 0 149 1 161 18 154
9 -3 47 -16 84 -27z m2878 -128 c0 -146 -2 -160 -18 -160 -12 0 -36 38 -84
133 l-66 133 76 26 c43 14 80 26 85 27 4 0 7 -71 7 -159z"/>
</g>
</svg>
