<?xml version="1.0" standalone="no"?>
<!DOCTYPE svg PUBLIC "-//W3C//DTD SVG 20010904//EN"
 "http://www.w3.org/TR/2001/REC-SVG-20010904/DTD/svg10.dtd">
<svg version="1.0" xmlns="http://www.w3.org/2000/svg"
 width="512.000000pt" height="512.000000pt" viewBox="0 0 512.000000 512.000000"
 preserveAspectRatio="xMidYMid meet">

<g transform="translate(0.000000,512.000000) scale(0.100000,-0.100000)"
fill="#383ae4" stroke="none">
<path d="M1295 4670 c-336 -38 -624 -178 -866 -419 -265 -265 -406 -583 -425
-958 -32 -618 422 -1314 1338 -2050 264 -213 530 -400 838 -593 236 -148 349
-210 381 -210 45 0 428 228 721 430 812 558 1395 1145 1656 1666 225 450 239
887 41 1313 -131 282 -407 559 -684 687 -566 261 -1211 154 -1642 -273 l-92
-91 -93 91 c-214 212 -472 344 -773 397 -86 15 -306 20 -400 10z m380 -270
c288 -54 546 -215 726 -451 78 -102 100 -119 159 -119 59 0 81 17 159 118 170
224 399 372 686 444 78 20 114 23 270 22 160 -1 191 -4 276 -26 459 -123 796
-476 885 -928 25 -126 29 -292 10 -400 -34 -194 -124 -411 -250 -605 -350
-538 -1062 -1153 -1949 -1684 l-87 -53 -103 63 c-876 536 -1565 1131 -1915
1653 -195 291 -292 583 -279 840 19 395 211 734 537 950 153 101 310 158 525
190 50 7 286 -2 350 -14z"/>
</g>
</svg>
