<?xml version="1.0" standalone="no"?>
<!DOCTYPE svg PUBLIC "-//W3C//DTD SVG 20010904//EN"
 "http://www.w3.org/TR/2001/REC-SVG-20010904/DTD/svg10.dtd">
<svg version="1.0" xmlns="http://www.w3.org/2000/svg"
 width="512.000000pt" height="512.000000pt" viewBox="0 0 512.000000 512.000000"
 preserveAspectRatio="xMidYMid meet">

<g transform="translate(0.000000,512.000000) scale(0.100000,-0.100000)"
fill="#ffff" stroke="none">
<path d="M1450 4671 c-109 -35 -200 -115 -246 -216 -23 -49 -28 -74 -27 -135
1 -142 69 -396 155 -580 110 -234 245 -409 560 -722 247 -245 267 -272 290
-398 9 -44 9 -76 0 -120 -23 -126 -43 -153 -290 -398 -312 -311 -448 -485
-559 -718 -85 -179 -155 -442 -156 -584 -1 -61 4 -86 27 -135 30 -66 99 -143
161 -179 99 -59 55 -57 1216 -54 l1064 3 58 23 c80 33 168 116 209 199 28 56
32 75 31 141 -1 144 -69 397 -155 582 -110 234 -245 409 -560 722 -247 246
-267 273 -290 398 -9 44 -9 76 0 120 23 126 43 153 290 398 315 313 450 488
560 722 86 183 155 445 155 585 0 55 -6 84 -28 133 -36 81 -129 170 -212 204
l-58 23 -1070 2 c-1001 2 -1074 1 -1125 -16z m1208 -2533 c205 -182 487 -446
538 -504 205 -232 306 -475 317 -757 2 -66 1 -70 -31 -98 l-32 -29 -890 0
-890 0 -32 29 c-32 28 -33 32 -31 98 6 162 56 351 129 493 83 160 174 265 446
513 364 331 334 307 378 307 33 0 48 -8 98 -52z"/>
</g>
</svg>
