<?xml version="1.0" encoding="UTF-8"?>
<!DOCTYPE svg PUBLIC "-//W3C//DTD SVG 1.1//EN" "http://www.w3.org/Graphics/SVG/1.1/DTD/svg11.dtd">
<svg xmlns="http://www.w3.org/2000/svg" version="1.1" width="512px" height="512px" style="shape-rendering:geometricPrecision; text-rendering:geometricPrecision; image-rendering:optimizeQuality; fill-rule:evenodd; clip-rule:evenodd" xmlns:xlink="http://www.w3.org/1999/xlink">
<g><path style="opacity:0.966" fill="#2a3957" d="M 249.5,-0.5 C 253.5,-0.5 257.5,-0.5 261.5,-0.5C 286.076,22.5745 310.243,46.2412 334,70.5C 338.794,78.1246 338.628,85.6246 333.5,93C 326.167,97.6667 318.833,97.6667 311.5,93C 298,79.5 284.5,66 271,52.5C 270.5,115.166 270.333,177.832 270.5,240.5C 333.168,240.667 395.834,240.5 458.5,240C 443.271,225.439 428.771,210.273 415,194.5C 412.5,178.333 419.333,171.5 435.5,174C 437.167,175 438.833,176 440.5,177C 464.759,200.757 488.425,224.924 511.5,249.5C 511.5,253.5 511.5,257.5 511.5,261.5C 488.425,286.076 464.759,310.243 440.5,334C 432.875,338.794 425.375,338.628 418,333.5C 413.333,326.167 413.333,318.833 418,311.5C 431.5,298 445,284.5 458.5,271C 395.834,270.5 333.168,270.333 270.5,270.5C 270.333,333.168 270.5,395.834 271,458.5C 285.561,443.271 300.727,428.771 316.5,415C 332.667,412.5 339.5,419.333 337,435.5C 336,437.167 335,438.833 334,440.5C 310.243,464.759 286.076,488.425 261.5,511.5C 257.5,511.5 253.5,511.5 249.5,511.5C 224.924,488.425 200.757,464.759 177,440.5C 172.206,432.875 172.372,425.375 177.5,418C 184.833,413.333 192.167,413.333 199.5,418C 212.667,431.167 225.833,444.333 239,457.5C 239.5,395.168 239.667,332.834 239.5,270.5C 177.166,270.333 114.832,270.5 52.5,271C 67.7293,285.561 82.2293,300.727 96,316.5C 98.5,332.667 91.6667,339.5 75.5,337C 73.8333,336 72.1667,335 70.5,334C 46.2412,310.243 22.5745,286.076 -0.5,261.5C -0.5,257.5 -0.5,253.5 -0.5,249.5C 22.5745,224.924 46.2412,200.757 70.5,177C 78.1246,172.206 85.6246,172.372 93,177.5C 97.6667,184.833 97.6667,192.167 93,199.5C 79.5,213 66,226.5 52.5,240C 114.832,240.5 177.166,240.667 239.5,240.5C 239.667,178.166 239.5,115.832 239,53.5C 224.773,68.3962 209.939,82.5629 194.5,96C 178.333,98.5 171.5,91.6667 174,75.5C 175,73.8333 176,72.1667 177,70.5C 200.757,46.2412 224.924,22.5745 249.5,-0.5 Z"/></g>
</svg>
